<?xml version="1.0" standalone="no"?>
<!DOCTYPE svg PUBLIC "-//W3C//DTD SVG 20010904//EN"
 "http://www.w3.org/TR/2001/REC-SVG-20010904/DTD/svg10.dtd">
<svg version="1.0" xmlns="http://www.w3.org/2000/svg"
 width="300.000000pt" height="287.000000pt" viewBox="0 0 300.000000 287.000000"
 preserveAspectRatio="xMidYMid meet">
<metadata>
Created by potrace 1.10, written by Peter Selinger 2001-2011
</metadata>
<g transform="translate(0.000000,287.000000) scale(0.100000,-0.100000)"
fill="#000000" stroke="none">
<path d="M1795 2236 c-89 -28 -130 -62 -175 -143 l-25 -47 -245 -103 c-436
-184 -501 -214 -546 -258 -56 -54 -71 -105 -57 -190 12 -72 53 -168 86 -203
61 -66 161 -80 292 -42 38 11 75 20 81 20 5 0 18 -15 27 -32 9 -18 28 -51 42
-74 l25 -40 -56 -95 c-75 -126 -104 -184 -104 -208 0 -51 79 -70 117 -29 11
13 57 78 101 145 80 119 103 140 141 128 11 -3 60 -69 110 -146 50 -77 101
-144 114 -150 30 -14 74 3 88 34 13 28 -9 77 -102 225 -33 51 -59 95 -59 98 0
3 11 20 25 38 48 62 67 122 63 194 l-3 66 39 9 c26 7 61 6 107 -3 81 -15 154
-4 236 36 126 61 125 154 -3 527 -76 220 -108 257 -219 256 -33 0 -78 -6 -100
-13z m171 -45 c41 -25 68 -83 139 -301 64 -196 78 -286 52 -337 -31 -58 -166
-100 -267 -81 -71 13 -138 4 -167 -24 -19 -18 -23 -32 -23 -87 0 -68 -19 -123
-60 -181 -11 -15 -20 -40 -20 -55 0 -15 32 -81 75 -153 42 -69 74 -133 73
-142 -2 -8 -12 -15 -23 -15 -15 0 -44 36 -107 132 -143 216 -179 216 -322 -2
-76 -115 -111 -149 -126 -124 -11 17 -6 28 67 151 82 140 84 151 40 230 -19
35 -47 74 -61 87 l-25 24 -90 -22 c-136 -32 -197 -27 -249 22 -54 50 -101 191
-88 261 11 55 59 103 150 146 45 21 207 90 361 155 154 64 292 126 307 137 16
11 39 38 53 61 37 64 76 96 141 117 77 25 131 25 170 1z"/>
<path d="M1802 2129 c-55 -28 -92 -76 -92 -120 0 -46 115 -385 146 -430 26
-38 61 -59 97 -59 80 0 157 57 157 115 0 38 -74 284 -119 396 -48 118 -97 143
-189 98z m138 -74 c27 -64 128 -376 130 -405 4 -45 0 -51 -42 -70 -48 -22 -90
-25 -118 -10 -10 5 -33 47 -50 92 -35 89 -107 307 -112 337 -7 41 43 92 110
111 38 10 60 -5 82 -55z"/>
<path d="M1415 1861 c-93 -38 -192 -79 -220 -91 -27 -11 -68 -29 -90 -38 -22
-9 -80 -37 -130 -62 -142 -72 -161 -121 -97 -250 51 -102 97 -114 252 -65 77
25 91 34 150 92 36 36 82 73 102 84 48 25 119 24 200 -1 73 -23 101 -25 131
-8 58 31 59 58 6 223 -42 132 -75 185 -116 185 -10 0 -94 -31 -188 -69z m227
-13 c10 -20 34 -90 53 -155 34 -110 35 -118 19 -130 -25 -18 -56 -16 -122 7
-78 28 -169 28 -228 0 -25 -12 -68 -48 -96 -80 -56 -65 -87 -81 -201 -110
-113 -28 -135 -15 -172 98 -23 71 -15 95 42 128 92 55 647 286 673 281 8 -1
23 -19 32 -39z"/>
<path d="M1428 1486 c-35 -15 -76 -54 -94 -88 -32 -61 -2 -161 59 -198 50 -31
137 -28 177 6 43 36 60 74 60 132 0 63 -30 109 -90 140 -49 24 -72 26 -112 8z
m103 -47 c74 -37 88 -132 28 -191 -23 -24 -36 -28 -81 -28 -29 0 -60 6 -68 13
-76 60 -63 175 24 213 42 18 50 17 97 -7z"/>
</g>
</svg>
